<?xml version="1.0" encoding="UTF-8" standalone="no"?>
<!DOCTYPE svg PUBLIC "-//W3C//DTD SVG 1.1//EN" "http://www.w3.org/Graphics/SVG/1.1/DTD/svg11.dtd">
<svg width="100%" height="100%" viewBox="0 0 36 36" version="1.1" xmlns="http://www.w3.org/2000/svg" xmlns:xlink="http://www.w3.org/1999/xlink" xml:space="preserve" xmlns:serif="http://www.serif.com/" style="fill-rule:evenodd;clip-rule:evenodd;stroke-linejoin:round;stroke-miterlimit:2;">
    <g transform="matrix(0.60277,0,0,0.508882,-253.636,-156.046)">
        <path d="M476.018,376.661C474.994,376.661 474.162,376.491 473.522,376.149C472.882,375.808 472.221,375.211 471.538,374.357L449.394,346.197L445.554,342.869L423.282,314.581C422.343,313.472 421.895,312.32 421.938,311.125C421.981,309.931 422.386,308.885 423.154,307.989C423.922,307.093 425.031,306.645 426.482,306.645C427.933,306.645 429.17,307.157 430.194,308.181L451.698,335.701L455.154,338.517L478.962,368.981C480.071,370.347 480.541,371.627 480.37,372.821C480.199,374.016 479.666,374.955 478.77,375.637C477.874,376.32 476.957,376.661 476.018,376.661ZM425.33,376.661C423.965,376.661 422.877,376.235 422.066,375.381C421.255,374.528 420.829,373.504 420.786,372.309C420.743,371.115 421.191,369.963 422.13,368.853L445.682,339.413L451.186,346.709L428.786,375.125C428.018,376.149 426.866,376.661 425.33,376.661ZM455.282,343.381L449.01,336.981L471.154,308.949C471.751,308.096 472.413,307.499 473.138,307.157C473.863,306.816 474.61,306.645 475.378,306.645C476.829,306.645 477.938,307.093 478.706,307.989C479.474,308.885 479.837,309.952 479.794,311.189C479.751,312.427 479.303,313.6 478.45,314.709L455.282,343.381Z" style="fill:rgb(43,36,62);fill-rule:nonzero;"/>
    </g>
</svg>
